<svg version="1.1" xmlns="http://www.w3.org/2000/svg" xmlns:xlink="http://www.w3.org/1999/xlink" width="231.47418" height="100.66583" viewBox="0,0,231.47418,100.66583"><g transform="translate(-124.29605,-136.7225)"><g data-paper-data="{&quot;isPaintingLayer&quot;:true}" fill-rule="nonzero" stroke="none" stroke-width="1" stroke-linecap="butt" stroke-linejoin="miter" stroke-miterlimit="10" stroke-dasharray="" stroke-dashoffset="0" style="mix-blend-mode: normal"><path d="M335.05734,221.17496c-2.8034,0.35042 -4.55553,0.35042 -5.25638,0.70085c-1.4017,0.70085 -4.55553,1.4017 -8.4102,1.4017c-4.90595,0 -9.46148,-1.75212 -13.31615,-4.55553h-2.8034c-1.05128,0 -1.75212,0 -2.8034,-0.35042c-3.85468,1.4017 -7.35893,1.4017 -9.46148,1.4017h-0.70085c-4.90595,0.35042 -9.81191,-0.70085 -14.01701,-2.8034c-2.10255,0.70085 -3.85468,1.05128 -5.95723,1.05128l-12.96573,0.35042c-5.95723,0 -11.21361,-2.10255 -15.41871,-5.95723c-1.75212,0 -3.50425,-0.35042 -4.90595,-0.70085c-2.10255,2.45298 -4.90595,4.55553 -8.4102,6.30765c-6.65808,3.15382 -14.01701,3.50425 -21.02551,0.70085c-0.70085,-0.35042 -1.75212,-0.70085 -2.45298,-1.05128l-8.05978,1.05128h-2.45298c-1.05128,0.35042 -1.75212,1.05128 -2.45298,1.4017c-5.25638,2.45298 -10.16233,2.45298 -12.26488,2.45298h-1.75212c-5.95723,0 -11.91445,-1.75212 -16.46999,-4.90595c-1.4017,0.35042 -3.15382,0.70085 -4.55553,0.70085c-3.15382,2.10255 -7.0085,3.50425 -11.21361,3.85468h-1.4017c-11.56403,0 -21.02551,-8.76063 -22.07679,-20.32466v-0.35042c0,-1.75212 -0.35042,-5.6068 0,-9.81191c0,-2.10255 0.35042,-5.25638 0.35042,-5.95723c0,-2.8034 0.70085,-5.6068 1.75212,-8.4102c-0.70085,-2.8034 -0.35042,-5.6068 0,-8.4102v-1.05128c0.35042,-2.45298 1.05128,-7.35893 3.50425,-12.26488c4.55553,-8.4102 12.96573,-13.66658 22.42721,-13.66658c3.15382,-1.75212 6.30765,-2.45298 9.81191,-2.45298h1.05128c7.0085,0.35042 13.31615,3.85468 17.17083,9.46148c3.15382,-2.8034 7.0085,-4.55553 11.21361,-5.25638c8.4102,-1.05128 15.41871,-1.4017 21.37593,-0.35042c3.15382,-2.8034 7.35893,-4.90595 11.56403,-5.25638l9.11105,-1.4017h2.8034c5.25638,0 10.51275,2.10255 14.71785,5.6068h0.70085l13.31615,-0.35042c5.6068,0 10.51275,-0.35042 11.56403,-0.35042h1.75212c4.90595,0 10.16233,1.75212 14.01701,4.90595c3.85468,-2.8034 8.4102,-4.2051 13.31615,-4.2051h4.55553c3.50425,-2.10255 7.35893,-3.50425 11.56403,-3.50425l11.21361,-0.35042h0.35042c11.91445,0 21.72636,9.81191 22.07679,21.72636c0,5.6068 -1.75212,10.51275 -5.25638,14.71785v10.16233c3.15382,3.50425 4.90595,8.05978 5.25638,12.96573c0.70085,11.91445 -8.4102,22.07679 -20.67509,23.12806z" fill="#ffffff"/><path d="M334.35649,208.55965c-4.55553,0.35042 -7.35893,0.70085 -8.05978,1.05128l-0.35042,0.35042c-1.05128,0.35042 -2.45298,1.05128 -4.2051,1.05128c-2.10255,0 -4.55553,-0.70085 -6.30765,-2.45298c-0.70085,-0.70085 -1.4017,-1.4017 -1.75212,-2.10255h-8.05978c-1.4017,0 -2.8034,-0.35042 -3.85468,-1.05128c-0.35042,0.35042 -1.05128,0.35042 -1.4017,0.70085c-2.8034,1.4017 -5.25638,1.4017 -7.0085,1.4017h-1.75212c-5.25638,0 -9.46148,-1.75212 -12.26488,-4.90595c-1.75212,1.75212 -4.2051,2.8034 -6.65808,2.8034l-12.96573,0.35042c-4.55553,0 -8.76063,-3.50425 -9.46148,-7.70935c-1.75212,1.05128 -3.50425,1.75212 -5.6068,1.75212c-2.10255,0 -4.2051,-0.70085 -5.95723,-1.75212c-0.35042,-0.35042 -0.70085,-0.70085 -1.05128,-0.70085c-1.05128,0.70085 -2.45298,0.70085 -3.85468,0.70085h-1.05128c-1.4017,4.2051 -3.85468,7.0085 -7.70935,8.76063c-1.75212,0.70085 -3.85468,1.4017 -5.6068,1.4017c-1.75212,0 -3.85468,-0.35042 -5.6068,-1.05128c-1.75212,-0.70085 -3.15382,-1.75212 -4.2051,-2.8034c-0.70085,0.35042 -1.4017,0.35042 -2.10255,0.70085l-10.16233,1.4017h-1.4017c-1.05128,0 -1.75212,0 -2.8034,-0.35042c-1.4017,1.4017 -3.15382,2.10255 -4.55553,2.8034c-2.8034,1.4017 -5.25638,1.4017 -7.0085,1.4017h-1.75212c-6.30765,0 -11.21361,-2.8034 -14.01701,-6.65808c-2.8034,1.75212 -6.30765,2.8034 -9.46148,2.8034h-2.10255c0,0.35042 -0.35042,0.35042 -0.35042,0.70085c-1.75212,1.75212 -4.2051,3.15382 -6.65808,3.15382h-0.70085c-4.90595,0 -9.11105,-3.85468 -9.46148,-9.11105v-0.35042c0,-1.75212 -0.35042,-4.90595 0,-8.4102c0,-2.45298 0.35042,-6.30765 0.35042,-6.30765c0,-2.45298 1.05128,-4.55553 2.45298,-6.30765c-1.4017,-2.8034 -1.75212,-5.95723 -1.05128,-9.46148v-0.70085c0.35042,-2.10255 0.70085,-5.25638 2.10255,-8.4102c2.45298,-4.55553 7.0085,-7.0085 12.26488,-7.0085h2.45298c1.75212,-1.4017 3.85468,-2.45298 6.30765,-2.45298c5.25638,0 9.46148,4.55553 9.46148,9.81191v3.85468c1.75212,-0.70085 3.85468,-1.05128 5.95723,-1.05128c1.05128,0 1.75212,0 2.8034,0.35042c1.4017,-1.75212 3.50425,-2.8034 5.6068,-3.15382c0.35042,-0.70085 0.70085,-1.05128 1.05128,-1.75212c1.4017,-2.10255 3.85468,-3.50425 6.30765,-3.85468c2.10255,-0.35042 6.30765,-0.70085 11.21361,-0.70085c5.6068,0 10.16233,0.70085 13.66658,2.45298c1.05128,-3.85468 3.85468,-6.65808 8.05978,-7.35893l9.11105,-1.4017h1.4017c2.8034,0 5.25638,1.05128 7.0085,3.15382c0.70085,0.70085 1.75212,2.10255 2.10255,3.15382l0.35042,1.05128c1.75212,-1.05128 3.50425,-1.75212 5.6068,-1.75212l13.66658,-0.35042c6.65808,0 12.61531,-0.35042 12.61531,-0.70085h0.70085c2.45298,0 5.25638,1.05128 7.0085,2.8034c1.4017,1.4017 2.45298,3.15382 2.8034,5.25638h0.70085c1.05128,0 1.75212,0 2.8034,0.35042c1.4017,-1.75212 3.50425,-2.8034 5.6068,-3.15382c1.75212,-2.45298 4.90595,-4.55553 8.4102,-4.55553h9.11105c1.75212,-2.10255 4.2051,-3.50425 7.35893,-3.50425h11.21361c5.25638,0 9.46148,4.2051 9.81191,9.46148c0,3.85468 -2.10255,7.35893 -5.25638,8.76063v21.37593c2.8034,1.4017 4.90595,4.55553 5.25638,8.05978c0.35042,5.25638 -3.85468,9.81191 -9.11105,10.16233z" fill="#f9a83a"/><path d="M241.84425,178.07267l-7.0085,1.05128l2.45298,-12.61531z" fill="#f9a83a"/><path d="M153.5371,178.77351c4.2051,0.70085 12.96573,2.10255 12.96573,10.86318c0,2.45298 -1.4017,5.25638 -3.50425,7.0085c-2.45298,2.10255 -5.6068,3.15382 -8.76063,2.45298c-2.45298,-0.35042 -4.55553,-1.4017 -5.95723,-2.45298v3.85468c0,1.05128 -1.05128,2.10255 -2.10255,2.10255c-1.05128,0 -2.10255,-1.05128 -2.10255,-2.10255c0,-0.35042 -0.35042,-3.50425 0,-7.70935c0.35042,-2.45298 0.35042,-6.65808 0.35042,-6.65808c0,-1.05128 1.05128,-2.10255 2.10255,-2.10255c1.05128,0 2.10255,1.05128 2.10255,2.10255v0.70085c0,1.05128 0.35042,2.8034 0.70085,4.2051c0.70085,1.4017 2.8034,2.45298 3.50425,2.8034c0.70085,0 1.05128,0.35042 1.75212,0.35042c2.10255,0.35042 4.2051,0 5.6068,-1.4017c1.4017,-1.05128 2.10255,-2.45298 2.10255,-3.85468c0,-3.50425 -3.85468,-4.55553 -9.46148,-5.6068c-5.25638,-1.05128 -7.35893,-5.25638 -6.65808,-11.91445v-0.70085c0.35042,-3.50425 1.05128,-9.46148 7.70935,-8.4102c2.45298,0 4.55553,1.75212 6.30765,3.50425v-3.85468c0,-1.05128 1.05128,-2.10255 2.10255,-2.10255c1.05128,0 2.10255,1.05128 2.10255,2.10255c0,0.35042 -0.70085,13.66658 -0.70085,13.66658c-0.35042,1.05128 -1.4017,2.10255 -2.45298,1.75212c-1.05128,-0.35042 -1.75212,-1.05128 -1.75212,-1.75212v-1.4017c-0.35042,-1.05128 -0.35042,-2.10255 -1.05128,-3.50425c-0.70085,-2.10255 -2.10255,-3.15382 -2.8034,-3.85468c-0.70085,-0.70085 -1.4017,-1.05128 -2.10255,-1.05128c-2.10255,0 -2.45298,1.05128 -3.15382,5.25638v0.70085c-0.70085,4.90595 0.70085,6.65808 3.15382,7.0085M212.40853,172.81629c1.05128,-1.4017 1.75212,-2.8034 1.75212,-3.50425v-0.70085c-1.05128,-1.75212 -5.95723,-2.10255 -11.56403,-2.10255v9.81191c2.10255,-0.35042 4.2051,-0.70085 5.6068,-1.4017l1.05128,-0.35042c0.35042,0 1.4017,-0.35042 1.75212,-0.70085c0.70085,-0.35042 1.05128,-0.70085 1.4017,-1.05128M224.67341,191.73924c1.05128,0.35042 1.75212,1.4017 0.35042,2.10255c-0.70085,3.15382 -2.10255,4.2051 -3.85468,5.25638c-2.10255,1.05128 -3.85468,0.35042 -5.25638,0c-1.75212,-0.70085 -2.8034,-2.45298 -3.15382,-3.15382c-0.70085,-1.75212 -1.05128,-5.95723 -1.05128,-7.0085c-0.35042,-5.25638 -1.05128,-7.35893 -1.75212,-8.4102c-0.35042,-0.70085 -1.05128,-1.05128 -1.75212,-1.05128h-0.70085c-1.75212,0.70085 -3.50425,1.05128 -5.6068,1.4017v12.26488l3.15382,-0.35042c1.05128,-0.35042 2.45298,0.70085 2.45298,1.75212c0.35042,1.05128 -0.70085,2.45298 -1.75212,2.45298l-10.16233,1.4017c-1.05128,0.35042 -2.45298,-0.70085 -2.45298,-1.75212c-0.35042,-1.05128 0.70085,-2.45298 1.75212,-2.45298l2.8034,-0.35042v-12.26488h-1.05128c-1.05128,0 -2.10255,-1.05128 -2.10255,-2.10255c0,-1.05128 1.05128,-2.10255 2.10255,-2.10255h1.05128v-9.81191c-1.05128,0 -2.10255,0.35042 -3.15382,0.35042c-1.05128,0.35042 -2.45298,-0.70085 -2.45298,-1.75212c-0.35042,-1.05128 0.70085,-2.45298 1.75212,-2.45298c4.90595,-0.70085 19.97423,-2.45298 23.47849,3.50425c1.4017,2.45298 0.70085,5.25638 -1.75212,8.76063c0,0 -1.05128,1.05128 -2.10255,1.75212c1.75212,1.75212 3.15382,5.25638 3.15382,11.56403c0,1.75212 0.35042,4.55553 0.70085,5.25638c0.35042,0.35042 0.70085,1.05128 0.70085,1.05128c1.05128,0.35042 1.75212,0.70085 2.10255,0.35042c0.35042,-0.35042 1.05128,-0.35042 1.75212,-2.8034c0.35042,-1.05128 1.75212,-1.75212 2.8034,-1.4017M301.0661,185.08117c1.05128,0 2.10255,0.70085 2.10255,1.4017v3.50425c-0.35042,0.70085 -0.70085,3.15382 -1.4017,4.55553c-0.70085,1.05128 -1.05128,1.75212 -1.75212,2.45298c-1.05128,1.05128 -2.10255,1.75212 -3.15382,2.10255c-1.4017,0.70085 -2.8034,0.70085 -4.2051,0.70085h-1.05128c-7.70935,0 -10.16233,-6.30765 -10.51275,-9.46148v-9.81191c0.35042,-5.25638 2.10255,-8.4102 4.55553,-10.16233c3.15382,-2.10255 7.35893,-0.35042 8.4102,0.35042c1.05128,0.70085 2.10255,1.05128 2.8034,1.75212v-3.85468c0,-1.05128 1.05128,-2.10255 2.10255,-2.10255c1.05128,0 2.10255,1.05128 2.10255,2.10255v9.46148c0,1.05128 -0.35042,1.75212 -1.4017,2.10255c-1.05128,0 -2.10255,-0.35042 -2.45298,-1.05128c-0.35042,0 -2.10255,-3.15382 -4.90595,-4.2051c-2.45298,-0.70085 -3.85468,-1.05128 -4.90595,-0.35042c-1.4017,1.05128 -2.10255,3.50425 -2.45298,7.0085v9.11105c0,1.05128 0.70085,5.6068 6.30765,5.25638h1.4017c1.4017,0 1.75212,0 2.45298,-0.35042c0.70085,-0.35042 1.4017,-0.70085 1.75212,-1.05128c0.70085,-0.70085 1.05128,-1.05128 1.4017,-1.75212c0.35042,-0.35042 0.70085,-1.75212 0.70085,-2.8034v-2.8034c0,-1.05128 1.05128,-2.10255 2.10255,-2.10255M335.75819,199.09818c0,1.05128 -0.70085,2.10255 -1.75212,2.8034c-4.90595,0.35042 -9.11105,0.70085 -10.16233,1.4017c-1.4017,0.35042 -2.45298,0.70085 -3.15382,0c-1.05128,-0.70085 -1.05128,-2.10255 -0.35042,-2.8034c1.05128,-1.4017 3.15382,-1.4017 5.95723,-2.10255v-16.11955l-12.61531,2.10255v10.86318h3.50425c1.05128,0 2.10255,1.05128 2.10255,2.10255c0,1.05128 -1.05128,2.10255 -2.10255,2.10255l-11.56403,-0.35042c-1.05128,0 -2.10255,-1.05128 -2.10255,-2.10255c0,-1.05128 1.05128,-2.10255 2.10255,-2.10255h3.50425v-28.38444h-3.50425c-1.05128,0 -2.10255,-1.05128 -2.10255,-2.10255c0,-1.05128 1.05128,-2.10255 2.10255,-2.10255h11.21361c1.05128,0 2.10255,1.05128 2.10255,2.10255c0,1.05128 -1.05128,2.10255 -2.10255,2.10255h-3.50425v13.31615l12.61531,-2.10255v-14.71785h-3.50425c-1.05128,0 -2.10255,-1.05128 -2.10255,-2.10255c0,-1.05128 1.05128,-2.10255 2.10255,-2.10255l11.21361,-0.35042c1.05128,0 2.10255,1.05128 2.10255,2.10255c0,1.05128 -1.05128,2.10255 -2.10255,2.10255h-3.15382c0.35042,23.82891 0.35042,31.18784 0.35042,34.69209c1.05128,-0.35042 2.10255,-0.35042 2.8034,-0.35042c1.05128,0 2.10255,1.05128 2.10255,2.10255" fill="#ffffff"/><path d="M241.84425,178.07267l-4.55553,-11.56403l-2.45298,12.61531zM253.40828,182.62819c1.05128,-0.35042 2.10255,0.35042 2.45298,1.05128c0.35042,1.05128 -0.35042,2.45298 -1.4017,2.8034c-3.85468,1.4017 -7.70935,3.15382 -8.76063,4.55553c-0.70085,0.70085 -2.10255,1.05128 -3.15382,0.35042c-0.70085,-0.70085 -1.05128,-1.75212 -0.35042,-2.8034c1.05128,-1.05128 1.75212,-1.4017 3.50425,-2.45298l-2.10255,-5.25638l-9.81191,1.75212l-0.35042,3.15382c1.4017,0 2.10255,1.05128 2.10255,2.10255c0,1.4017 -1.05128,2.10255 -2.10255,2.10255l-10.51275,-0.35042c-1.4017,0 -2.10255,-1.05128 -2.10255,-2.10255c0,-1.4017 1.05128,-2.10255 2.10255,-2.10255l6.30765,0.35042c1.05128,-4.90595 4.2051,-20.67509 4.90595,-24.52976c-2.8034,0.35042 -6.30765,0.70085 -6.30765,0.70085c-1.4017,0.35042 -2.45298,-0.70085 -2.45298,-1.75212c-0.35042,-1.4017 0.70085,-2.45298 1.75212,-2.45298l9.11105,-1.05128c0.70085,0 1.4017,0.35042 1.75212,0.70085c0.35042,0 0.70085,0.70085 0.70085,1.05128l8.05978,19.27339l2.8034,6.65808c2.10255,-1.05128 3.15382,-1.4017 3.85468,-1.75212" fill="#ffffff"/><path d="M278.63889,161.25226c0.70085,0 1.4017,0.35042 1.4017,1.05128c0.70085,0.70085 0.70085,1.05128 0.70085,1.75212c-0.35042,2.8034 -0.35042,7.70935 -0.35042,7.70935c0,0.70085 -0.35042,1.75212 -1.05128,2.10255c-1.05128,0.70085 -2.10255,0.35042 -2.8034,-0.70085c0,-0.35042 -0.35042,-1.05128 -0.35042,-3.15382v-4.2051c-2.10255,0 -5.25638,0.35042 -8.76063,0.35042v27.68359h4.2051c1.05128,0 2.10255,1.05128 2.10255,2.10255c0,1.05128 -1.05128,2.10255 -2.10255,2.10255l-12.96573,0.35042c-1.05128,0 -2.10255,-1.05128 -2.10255,-2.10255c0,-1.05128 1.05128,-2.10255 2.10255,-2.10255h4.55553v-27.68359h-9.11105c0.70085,2.8034 1.4017,8.4102 1.4017,8.4102c0,1.05128 -0.70085,2.10255 -1.75212,2.10255c-1.05128,0.35042 -2.45298,-0.70085 -2.45298,-1.75212l-1.75212,-10.51275c-0.35042,-0.70085 0,-1.4017 0.35042,-1.75212c0.70085,-0.35042 1.05128,-0.70085 1.75212,-0.70085l13.66658,-0.35042c7.0085,-0.35042 13.31615,-0.70085 13.31615,-0.70085M189.28047,187.18372c1.05128,0 2.10255,1.05128 2.10255,1.75212v3.50425c-0.35042,0.70085 -0.70085,3.15382 -1.4017,4.55553c-0.70085,1.05128 -1.05128,1.75212 -1.75212,2.45298c-1.05128,1.05128 -2.10255,1.75212 -3.15382,2.10255c-1.4017,0.70085 -2.8034,0.70085 -4.2051,0.70085h-1.05128c-8.05978,0 -10.51275,-6.30765 -10.86318,-9.46148v-9.81191c0.35042,-5.25638 2.10255,-8.4102 4.55553,-10.16233c3.50425,-1.75212 7.35893,-0.35042 8.76063,0.35042c1.05128,0.35042 2.10255,1.05128 2.8034,1.75212v-3.85468c0,-1.05128 1.05128,-2.10255 2.10255,-2.10255c1.05128,0 2.10255,1.05128 2.10255,2.10255v9.46148c0,1.05128 -0.35042,1.75212 -1.4017,2.10255c-1.05128,0 -2.10255,-0.35042 -2.45298,-1.05128c0,0 -2.10255,-3.15382 -4.90595,-4.2051c-2.45298,-0.70085 -3.85468,-1.05128 -4.90595,-0.35042c-1.4017,1.05128 -2.10255,3.50425 -2.45298,7.0085v9.11105c0,1.05128 0.70085,5.25638 6.30765,5.25638h1.4017c1.4017,0 1.75212,0 2.45298,-0.35042c0.70085,-0.35042 1.4017,-0.70085 1.75212,-1.05128c0.70085,-0.70085 1.05128,-1.05128 1.4017,-1.75212c0.35042,-0.70085 0.70085,-2.10255 0.70085,-2.8034v-3.15382c0,-1.05128 1.05128,-2.10255 2.10255,-2.10255" fill="#ffffff"/><text transform="translate(138.58333,233.86808) scale(0.33526,0.33526)" font-size="40" xml:space="preserve" fill="#ffffff" fill-rule="nonzero" stroke="none" stroke-width="1" stroke-linecap="butt" stroke-linejoin="miter" stroke-miterlimit="10" stroke-dasharray="" stroke-dashoffset="0" font-family="Pixel" font-weight="normal" text-anchor="start" style="mix-blend-mode: normal"><tspan x="0" dy="0">and turbowarp / forkphorus</tspan></text></g></g></svg>